<svg xmlns="http://www.w3.org/2000/svg" viewBox="0 0 120 120">
<!-- SVG created with Arrow, by QuiverAI (https://quiver.ai) -->
  <style type="text/css">
    .cls-0 {fill:#FFFFFF;stroke:#F2F2F2;stroke-width:0.5;stroke-miterlimit:10;}
    .pulse {
      transform-origin: 60.1px 55.5px;
      animation: pulse-anim 2s ease-in-out infinite;
    }
    @keyframes pulse-anim {
      0%, 100% { transform: scale(1); }
      50% { transform: scale(1.3); }
    }
  </style>
  <defs>
    <mask id="hole-mask">
      <rect width="120" height="120" fill="white" />
      <path class="pulse" fill="black" d="M60.1 68.8c-6.7 0-13.1-5.1-13.1-13 0-6.7 5.4-13.4 13.1-13.6 6.8 0 13.1 5.4 13.1 13.5 0 7-5.4 13.1-13.1 13.1z"/>
    </mask>
  </defs>
  <g mask="url(#hole-mask)">
    <path class="cls-0" d="m60.3 1.8c-32.3 0-58.5 24.8-58.5 58.8 0 25.2 16.6 48.4 43.6 57.5l0.1-40.1c0-2.1 1.8-4.4 4.3-4.4h20.5c2.2 0 4.3 1.8 4.3 4.2l0.1 40.4c22.4-5.6 43.7-25.1 43.8-56.8 0-29.8-24.9-59.6-58.2-59.6z"/>
  </g>
</svg>