<svg xmlns="http://www.w3.org/2000/svg" viewBox="0 0 120 120">
<!-- SVG created with Arrow, by QuiverAI (https://quiver.ai) -->
  <style type="text/css">.cls-0 {fill:#FFFFFF;stroke:#F2F2F2;stroke-width:0.5;stroke-miterlimit:10;}</style>
  <path class="cls-0" d="m60.3 1.8c-32.3 0-58.5 24.8-58.5 58.8 0 25.2 16.6 48.4 43.6 57.5l0.1-40.1c0-2.1 1.8-4.4 4.3-4.4h20.5c2.2 0 4.3 1.8 4.3 4.2l0.1 40.4c22.4-5.6 43.7-25.1 43.8-56.8 0-29.8-24.9-59.6-58.2-59.6zm-0.2 67c-6.7 0-13.1-5.1-13.1-13 0-6.7 5.4-13.4 13.1-13.6 6.8 0 13.1 5.4 13.1 13.5 0 7-5.4 13.1-13.1 13.1z"/>
</svg>