<?xml version="1.0" encoding="UTF-8" standalone="no"?>
<!DOCTYPE svg PUBLIC "-//W3C//DTD SVG 1.1//EN" "http://www.w3.org/Graphics/SVG/1.1/DTD/svg11.dtd">
<svg xmlns="http://www.w3.org/2000/svg" version="1.1" viewBox="0.00 0.00 1024.00 1024.00">
<g stroke-width="2.00" fill="none" stroke-linecap="butt">
<path stroke="#7d5344" vector-effect="non-scaling-stroke" d="
  M 774.85 1024.00
  Q 770.71 990.01 763.83 956.50
  Q 758.61 931.12 748.68 903.37
  Q 740.19 879.62 722.06 861.48
  Q 705.84 845.25 694.77 836.22
  A 0.68 0.67 -51.1 0 1 694.67 835.28
  C 702.66 825.26 698.23 815.73 697.01 805.33
  Q 696.26 798.88 694.91 796.24
  C 692.12 790.78 687.78 787.14 682.61 783.89
  A 1.00 1.00 0.0 0 1 682.29 782.54
  Q 686.16 776.09 686.12 768.48
  Q 686.06 757.95 683.57 747.17
  C 678.49 725.14 659.83 717.62 639.25 717.74
  Q 616.22 717.87 573.40 717.92
  A 0.67 0.67 0.0 0 1 572.73 717.25
  L 572.73 697.84
  A 0.44 0.43 87.1 0 1 573.12 697.40
  Q 594.47 694.99 613.92 687.41
  C 634.83 679.26 651.56 664.69 660.59 644.09
  Q 667.03 629.39 668.96 614.10
  A 0.54 0.54 0.0 0 1 669.81 613.73
  C 679.94 620.99 691.92 619.07 700.28 610.25
  C 708.12 602.00 713.09 590.75 716.09 579.89
  Q 719.81 566.45 721.32 553.00
  A 1.43 1.43 0.0 0 1 722.42 551.76
  Q 731.69 549.61 738.87 543.91
  C 743.44 540.28 749.08 533.11 746.13 527.08
  Q 744.64 524.02 741.45 521.54
  Q 737.28 518.31 733.78 515.13
  A 1.09 1.09 0.0 0 1 733.78 513.52
  Q 736.60 510.94 739.97 510.45
  C 744.82 509.74 748.39 509.79 752.58 508.38
  Q 758.87 506.28 763.11 505.18
  C 768.59 503.76 771.49 501.28 771.84 496.00
  Q 772.04 493.11 771.61 491.68
  C 769.37 484.15 766.04 475.50 775.39 471.15
  C 785.21 466.58 794.86 463.84 793.41 451.70
  C 792.71 445.83 788.40 442.80 783.37 440.62
  Q 778.05 438.31 764.01 432.52
  Q 760.58 431.10 757.64 428.73
  A 1.72 1.72 0.0 0 1 757.24 426.52
  Q 757.60 425.90 758.53 425.03
  Q 770.05 414.21 778.31 404.63
  Q 789.39 391.78 790.43 374.00
  Q 790.83 367.22 788.82 362.22
  C 787.26 358.34 785.07 355.99 782.55 351.97
  Q 780.02 347.93 780.42 342.00
  Q 781.27 329.42 781.63 323.50
  Q 782.11 315.67 781.11 310.11
  C 778.67 296.63 766.28 293.99 754.45 293.63
  C 749.64 293.48 745.28 293.86 741.24 293.01
  C 729.69 290.57 721.23 285.82 715.33 275.98
  A 1.65 1.64 -42.4 0 1 715.42 274.15
  Q 719.66 268.45 723.76 261.81
  Q 727.90 255.09 730.05 245.34
  C 731.70 237.82 730.45 227.23 721.96 224.55
  C 715.88 222.63 708.72 223.82 702.30 224.80
  C 694.41 226.00 687.84 225.59 681.19 220.89
  C 673.45 215.42 670.23 203.04 659.24 203.95
  Q 655.71 204.24 650.66 206.94
  C 645.24 209.84 641.85 212.16 636.56 214.48
  Q 629.57 217.53 625.87 212.64
  C 623.83 209.95 623.07 204.61 622.15 201.35
  C 618.82 189.59 608.00 177.66 594.60 182.60
  Q 588.92 184.69 583.80 188.06
  Q 573.84 194.60 566.93 199.94
  Q 565.37 201.15 561.30 203.55
  A 1.55 1.54 50.0 0 1 559.51 203.39
  C 540.29 187.04 485.86 144.37 464.37 180.36
  Q 460.68 186.54 457.79 197.78
  C 456.17 204.08 452.39 213.93 444.39 211.28
  C 438.72 209.40 433.77 201.14 427.45 207.70
  Q 423.55 211.75 418.76 217.56
  A 1.25 1.24 40.5 0 1 416.97 217.70
  Q 408.62 210.30 400.08 205.54
  C 383.24 196.16 375.60 218.00 371.10 229.34
  C 368.14 236.77 359.83 247.36 350.98 248.29
  C 344.45 248.98 338.94 244.32 332.19 246.17
  C 327.21 247.53 324.02 253.16 323.22 257.98
  C 322.12 264.56 323.04 271.40 323.92 278.52
  Q 324.08 279.80 323.88 281.06
  A 1.21 1.21 0.0 0 1 322.34 282.03
  C 312.45 279.11 301.71 276.98 292.80 281.63
  C 276.94 289.91 280.12 313.19 284.46 327.04
  Q 287.59 337.05 291.17 347.60
  Q 291.54 348.70 291.88 350.94
  A 1.25 1.25 0.0 0 1 290.95 352.35
  Q 285.42 353.73 277.33 355.34
  C 269.13 356.97 258.29 360.17 260.24 370.78
  C 261.35 376.82 265.52 381.92 268.42 386.85
  Q 271.40 391.91 268.19 396.68
  C 266.23 399.59 261.28 406.03 260.18 410.12
  C 257.74 419.14 263.72 425.56 269.70 431.45
  C 276.61 438.27 281.56 444.32 289.52 453.23
  A 1.65 1.64 44.0 0 1 289.56 455.38
  Q 289.02 456.03 287.98 456.73
  Q 275.09 465.44 267.42 471.92
  C 262.86 475.78 259.82 479.94 261.97 486.08
  Q 263.37 490.11 266.50 494.27
  Q 273.93 504.16 281.71 513.29
  Q 283.94 515.91 285.20 518.45
  A 1.88 1.88 0.0 0 1 285.10 520.31
  C 282.79 523.93 281.24 527.11 282.73 531.30
  C 284.35 535.88 287.32 539.52 290.97 544.49
  A 1.66 1.66 0.0 0 1 291.29 545.61
  Q 290.97 549.68 293.86 554.42
  Q 297.94 561.09 302.29 566.50
  C 304.63 569.41 306.39 571.39 310.06 570.39
  A 0.63 0.63 0.0 0 1 310.85 570.87
  C 314.33 587.80 325.26 619.64 347.75 618.50
  Q 354.85 618.14 361.03 613.61
  A 0.48 0.48 0.0 0 1 361.79 613.94
  Q 363.50 628.44 369.04 642.19
  C 384.19 679.74 420.66 692.68 458.32 697.98
  A 0.62 0.62 0.0 0 1 458.85 698.59
  L 458.85 717.11
  A 0.78 0.78 0.0 0 1 458.07 717.89
  L 438.51 717.89
  A 2.88 2.82 -36.1 0 1 437.69 717.77
  Q 421.65 712.86 405.00 718.07
  Q 397.87 720.30 394.66 721.68
  Q 377.69 729.00 361.30 737.56
  C 353.14 741.82 345.09 746.82 339.27 754.21
  Q 337.15 756.90 333.64 765.38
  Q 328.98 776.62 327.33 780.56
  C 323.36 790.04 319.61 800.71 319.38 811.13
  Q 319.16 821.65 327.82 826.28
  A 0.53 0.52 -47.2 0 1 327.85 827.19
  C 312.97 836.73 298.92 846.43 287.42 858.93
  C 277.98 869.20 272.18 882.48 267.10 895.58
  Q 257.43 920.47 251.91 947.65
  Q 244.23 985.52 240.35 1024.00"
/>
<path stroke="#803722" vector-effect="non-scaling-stroke" d="
  M 769.03 1024.00
  Q 764.77 991.80 758.39 959.93
  Q 753.52 935.60 746.04 913.69
  C 740.51 897.50 733.59 882.54 721.69 870.06
  Q 706.86 854.51 690.81 840.48
  A 1.06 1.06 0.0 0 0 689.52 840.41
  C 674.04 850.98 657.75 855.97 639.27 859.78
  Q 609.44 865.93 581.17 869.70
  A 0.95 0.94 87.8 0 0 580.35 870.59
  C 578.86 894.95 579.69 918.22 581.32 944.00
  Q 583.85 983.98 585.56 1024.00"
/>
<path stroke="#803722" vector-effect="non-scaling-stroke" d="
  M 573.08 1024.00
  Q 572.56 1014.17 572.20 1004.33
  C 570.26 951.81 565.44 916.38 567.71 872.23
  A 0.56 0.56 0.0 0 0 567.08 871.65
  L 544.14 874.31
  A 2.49 2.48 85.6 0 1 541.37 871.93
  L 541.33 871.61
  A 3.07 3.07 0.0 0 1 544.04 868.20
  L 567.49 865.60
  A 1.27 1.27 0.0 0 0 568.62 864.47
  C 569.34 857.66 570.12 850.00 573.29 844.30
  C 575.53 840.29 581.16 839.01 584.06 843.21
  C 586.99 847.46 586.01 852.43 582.53 856.03
  A 1.05 1.05 0.0 0 0 582.24 856.58
  L 581.09 862.66
  A 0.59 0.58 3.4 0 0 581.71 863.35
  Q 585.32 863.14 588.81 862.58
  Q 610.66 859.08 629.51 855.50
  Q 646.24 852.32 659.87 848.13
  Q 670.15 844.97 682.28 837.41
  C 685.11 835.65 687.22 832.68 690.12 831.15
  A 2.69 2.65 -88.5 0 0 691.20 830.11
  Q 694.37 824.68 693.36 819.19
  Q 691.41 808.59 691.00 803.75
  C 690.42 796.95 683.56 791.17 677.83 789.07
  A 1.99 1.99 0.0 0 1 676.53 787.36
  L 675.97 780.00
  A 2.88 2.84 60.1 0 1 676.44 778.21
  Q 676.83 777.53 678.52 775.54
  C 682.41 770.96 678.81 752.22 677.40 746.81
  C 674.80 736.79 668.17 730.68 658.78 726.99"
/>
<path stroke="#622b1e" vector-effect="non-scaling-stroke" d="
  M 658.78 726.99
  Q 656.19 725.56 654.06 725.20
  C 648.88 724.34 642.60 723.91 636.28 723.91
  Q 605.35 723.93 573.71 724.03
  A 0.85 0.85 0.0 0 0 572.86 724.88
  L 572.86 811.06
  A 0.27 0.27 0.0 0 0 573.31 811.26
  C 600.46 786.96 628.30 760.77 655.02 733.28"
/>
<path stroke="#803722" vector-effect="non-scaling-stroke" d="
  M 655.02 733.28
  L 657.87 731.53
  A 1.23 1.20 -55.8 0 1 658.66 731.37
  C 661.24 731.75 662.34 734.35 660.57 736.21
  C 634.61 763.35 607.12 788.88 579.16 814.10
  C 560.32 831.09 542.33 848.13 523.85 865.10
  Q 520.65 868.03 517.80 870.29
  Q 514.43 872.96 512.07 869.92
  C 504.86 860.63 495.90 846.87 488.58 836.86
  Q 459.53 797.10 425.71 754.55
  Q 420.69 748.24 417.11 742.41
  C 412.48 734.87 415.12 726.82 422.61 722.62
  A 0.52 0.52 0.0 0 0 422.34 721.65
  C 410.48 722.07 401.30 725.53 389.17 730.94
  Q 380.75 734.69 368.21 740.96
  Q 358.29 745.92 351.22 750.95
  Q 344.31 755.86 341.59 761.62
  Q 338.40 768.36 331.29 786.27
  C 328.29 793.80 325.13 802.86 325.10 810.56
  Q 325.05 821.33 335.89 822.36
  A 3.47 3.36 40.2 0 0 337.05 822.28
  L 339.20 821.75
  A 2.12 2.10 -38.6 0 1 340.62 821.90
  C 343.19 822.97 347.28 825.53 350.93 827.17
  Q 395.25 847.13 442.47 859.07
  A 0.57 0.57 0.0 0 0 443.18 858.58
  Q 444.28 848.69 446.99 840.23
  C 448.79 834.66 451.66 826.35 458.48 828.04
  C 463.86 829.37 464.62 836.36 461.83 840.44
  C 460.98 841.70 459.36 842.61 458.46 843.61
  A 2.14 2.09 73.4 0 0 457.86 844.75
  L 455.19 860.69
  A 1.04 1.04 0.0 0 0 455.97 861.87
  Q 469.62 865.23 485.32 867.52
  A 3.19 3.19 0.0 0 1 488.04 870.94
  L 488.01 871.29
  A 2.75 2.75 0.0 0 1 484.76 873.82
  L 455.12 868.22
  A 0.45 0.45 0.0 0 0 454.59 868.63
  C 453.20 888.64 453.14 907.39 454.32 930.39
  C 456.06 964.38 457.59 989.41 458.64 1024.00"
/>
<path stroke="#7d5344" vector-effect="non-scaling-stroke" d="
  M 446.32 1024.00
  Q 446.19 1023.78 446.00 1023.64"
/>
<path stroke="#803722" vector-effect="non-scaling-stroke" d="
  M 446.00 1023.64
  Q 446.24 1023.10 446.22 1022.50
  C 445.80 1006.65 444.64 986.20 444.03 967.43
  Q 443.76 959.14 442.80 946.50
  Q 441.55 929.97 441.22 904.25
  Q 440.96 884.15 442.43 865.61
  A 0.50 0.50 0.0 0 0 442.05 865.09
  Q 399.40 854.61 358.55 837.19
  Q 345.17 831.49 342.23 830.26
  Q 339.39 829.06 337.30 829.19
  A 2.17 2.05 26.7 0 0 336.36 829.47
  Q 316.22 841.16 299.52 855.50
  Q 287.09 866.16 279.77 881.01
  Q 274.06 892.59 269.59 905.33
  Q 260.36 931.59 255.43 958.49
  Q 249.46 991.05 246.20 1024.00"
/>
<path stroke="#322115" vector-effect="non-scaling-stroke" d="
  M 659.02 457.29
  Q 656.89 442.93 648.39 407.56
  C 647.30 403.04 642.94 400.21 638.95 398.86
  Q 637.45 398.34 630.98 398.34
  Q 531.13 398.30 400.40 398.30
  C 393.49 398.30 389.51 398.94 385.29 403.52
  A 6.75 6.75 0.0 0 0 383.75 406.36
  Q 363.34 486.28 364.78 569.00
  Q 365.20 592.82 367.52 611.10
  C 368.69 620.32 370.82 629.73 373.90 638.10
  C 383.76 664.85 406.46 679.79 433.20 686.79
  Q 453.96 692.23 475.16 694.07
  C 514.95 697.53 558.09 696.61 596.00 686.62
  C 603.91 684.53 611.87 681.84 618.60 678.59
  Q 650.82 663.02 659.98 628.25
  C 664.76 610.10 666.29 590.74 666.77 571.50
  Q 667.80 530.19 663.32 490.23
  C 662.03 478.70 660.92 470.07 659.02 457.29"
/>
<path stroke="#322115" vector-effect="non-scaling-stroke" d="
  M 670.93 606.49
  C 683.75 620.78 698.86 605.82 704.50 593.71
  C 713.29 574.79 716.85 552.90 716.68 531.78
  Q 716.66 528.45 714.84 526.87
  C 702.14 515.88 684.49 523.14 675.04 534.70
  C 673.68 536.35 672.52 537.83 672.56 539.32
  Q 673.10 562.13 672.99 567.75
  Q 672.58 588.20 670.54 605.24
  A 1.58 1.55 -62.9 0 0 670.93 606.49"
/>
<path stroke="#322115" vector-effect="non-scaling-stroke" d="
  M 359.73 606.61
  A 2.06 2.04 -24.1 0 0 360.36 604.98
  Q 358.35 578.40 358.55 552.27
  Q 358.59 546.90 357.95 545.56
  Q 351.74 532.47 340.31 525.54
  C 332.19 520.62 321.60 519.94 314.69 527.09
  A 3.98 3.97 -21.9 0 0 313.58 529.69
  Q 312.85 549.56 316.78 569.48
  Q 319.53 583.40 325.44 595.35
  C 332.06 608.76 346.06 619.63 359.73 606.61"
/>
<path stroke="#322115" vector-effect="non-scaling-stroke" d="
  M 464.74 714.10
  Q 464.58 715.09 464.58 716.50
  Q 464.54 751.08 464.75 790.96
  C 464.76 792.85 464.68 795.18 465.72 796.54
  Q 484.74 821.49 500.92 843.82
  A 2.67 2.65 72.7 0 0 502.99 844.92
  Q 520.83 845.52 538.71 841.66
  A 5.89 5.85 17.7 0 0 541.43 840.27
  L 566.19 817.85
  A 2.59 2.57 -21.2 0 0 567.04 815.94
  L 567.04 714.85
  A 0.46 0.46 0.0 0 0 566.38 714.44
  C 559.38 717.74 552.11 719.72 544.31 721.62
  C 518.69 727.89 489.35 726.14 465.75 713.60
  A 0.69 0.69 0.0 0 0 464.74 714.10"
/>
<path stroke="#622b1e" vector-effect="non-scaling-stroke" d="
  M 458.75 787.14
  L 458.75 724.62
  A 0.76 0.75 90.0 0 0 458.00 723.86
  Q 451.81 723.80 439.13 723.84
  Q 433.27 723.86 430.53 725.19
  Q 425.86 727.48 423.12 729.91
  C 418.76 733.78 420.99 738.03 423.66 741.85
  C 430.75 751.99 439.75 762.28 448.07 773.20
  Q 455.17 782.52 458.52 787.22
  A 0.13 0.13 0.0 0 0 458.75 787.14"
/>
<path stroke="#7e7e7e" vector-effect="non-scaling-stroke" d="
  M 532.10 848.97
  Q 518.52 851.13 506.37 850.78
  A 0.51 0.51 0.0 0 0 505.94 851.59
  L 515.14 863.88
  A 0.63 0.62 50.1 0 0 516.06 863.97
  L 532.26 849.31
  A 0.20 0.20 0.0 0 0 532.10 848.97"
/>
<path stroke="#322115" vector-effect="non-scaling-stroke" d="
  M 422.97 464.91
  C 414.73 468.29 417.87 480.22 426.45 478.44
  C 430.15 477.67 433.48 476.39 437.23 475.64
  Q 441.59 474.78 447.40 474.79
  C 453.19 474.81 457.89 473.72 458.09 467.51
  C 458.30 460.58 452.43 459.20 446.77 459.56
  Q 434.02 460.37 422.97 464.91"
/>
<path stroke="#322115" vector-effect="non-scaling-stroke" d="
  M 607.22 464.76
  Q 596.31 460.37 583.76 459.66
  C 578.18 459.35 572.41 460.75 572.67 467.57
  C 572.91 473.68 577.54 474.72 583.24 474.66
  Q 588.96 474.60 593.26 475.42
  C 596.96 476.13 600.24 477.37 603.89 478.10
  C 612.35 479.79 615.36 468.03 607.22 464.76"
/>
<path stroke="#322115" vector-effect="non-scaling-stroke" d="
  M 441.5763 549.9352
  A 21.79 14.65 88.8 0 0 455.7668 527.8432
  A 21.79 14.65 88.8 0 0 440.6637 506.3648
  A 21.79 14.65 88.8 0 0 426.4732 528.4568
  A 21.79 14.65 88.8 0 0 441.5763 549.9352"
/>
<path stroke="#322115" vector-effect="non-scaling-stroke" d="
  M 592.9512 549.8173
  A 21.72 14.72 89.1 0 0 607.3282 527.8688
  A 21.72 14.72 89.1 0 0 592.2688 506.3827
  A 21.72 14.72 89.1 0 0 577.8918 528.3312
  A 21.72 14.72 89.1 0 0 592.9512 549.8173"
/>
<path stroke="#322115" vector-effect="non-scaling-stroke" d="
  M 528.39 579.22
  A 3.29 2.67 -58.7 0 0 528.92 583.11
  C 531.10 584.70 534.00 582.84 535.75 581.20
  C 546.98 570.72 537.62 557.19 528.90 549.57
  Q 522.88 544.32 516.19 540.26
  A 3.07 3.07 0.0 0 0 512.04 541.17
  L 511.95 541.30
  A 2.98 2.97 -58.5 0 0 512.97 545.56
  C 521.28 550.19 530.65 557.39 534.03 566.16
  C 535.71 570.53 534.72 575.27 530.55 577.51
  Q 528.81 578.44 528.39 579.22"
/>
<path stroke="#322115" vector-effect="non-scaling-stroke" d="
  M 511.1764 577.8719
  A 5.11 3.35 -36.9 0 0 505.0786 578.2611
  A 5.11 3.35 -36.9 0 0 503.0036 584.0081
  A 5.11 3.35 -36.9 0 0 509.1014 583.6189
  A 5.11 3.35 -36.9 0 0 511.1764 577.8719"
/>
<path stroke="#322115" vector-effect="non-scaling-stroke" d="
  M 518.24 627.57
  Q 535.41 627.49 552.52 634.25
  Q 555.09 635.26 556.16 635.04
  C 558.80 634.51 559.15 630.88 556.88 629.69
  Q 552.26 627.24 547.02 625.69
  Q 532.33 621.35 518.21 621.42
  Q 504.09 621.48 489.43 625.96
  Q 484.21 627.55 479.61 630.05
  C 477.35 631.26 477.74 634.88 480.38 635.39
  Q 481.45 635.60 484.02 634.56
  Q 501.06 627.65 518.24 627.57"
/>
<path stroke="#7e7e7e" vector-effect="non-scaling-stroke" d="
  M 435.9011 529.8228
  A 4.52 4.32 70.2 0 0 438.4346 524.1067
  A 4.52 4.32 70.2 0 0 432.8389 521.3172
  A 4.52 4.32 70.2 0 0 430.3054 527.0333
  A 4.52 4.32 70.2 0 0 435.9011 529.8228"
/>
<path stroke="#7e7e7e" vector-effect="non-scaling-stroke" d="
  M 590.87 525.61
  A 4.60 4.60 0.0 0 0 586.27 521.01
  A 4.60 4.60 0.0 0 0 581.67 525.61
  A 4.60 4.60 0.0 0 0 586.27 530.21
  A 4.60 4.60 0.0 0 0 590.87 525.61"
/>
<path stroke="#322115" vector-effect="non-scaling-stroke" d="
  M 679.40 579.17
  A 3.37 3.37 0.0 0 0 683.35 576.77
  Q 688.16 559.25 696.44 545.19
  Q 700.11 538.98 705.74 534.27
  Q 707.34 532.93 707.05 531.15
  A 2.40 2.08 79.5 0 0 704.50 529.11
  C 699.12 530.27 693.51 538.01 690.81 542.81
  Q 682.28 558.00 677.05 575.42
  A 2.94 2.93 -75.7 0 0 679.25 579.14
  L 679.40 579.17"
/>
<path stroke="#322115" vector-effect="non-scaling-stroke" d="
  M 324.19 530.95
  Q 322.75 533.51 324.99 535.54
  C 334.35 544.02 340.37 556.77 344.53 568.97
  Q 347.11 576.53 348.03 578.85
  A 2.31 2.31 0.0 0 0 351.37 579.97
  L 351.50 579.89
  A 3.57 3.57 0.0 0 0 353.09 575.84
  C 348.65 560.41 341.95 546.17 332.15 534.18
  C 330.78 532.50 326.00 527.70 324.19 530.95"
/>
<path stroke="#e16140" vector-effect="non-scaling-stroke" d="
  M 655.02 733.28
  Q 656.01 729.61 658.78 726.99"
/>
<path stroke="#fd8966" vector-effect="non-scaling-stroke" d="
  M 446.00 1023.64
  Q 444.99 1023.53 444.58 1024.00"
/>
<path stroke="#803722" vector-effect="non-scaling-stroke" d="
  M 328.24 1024.00
  L 327.69 988.31
  A 2.74 2.72 -0.4 0 0 324.95 985.63
  L 324.84 985.63
  A 2.68 2.66 -0.2 0 0 322.16 988.31
  L 322.44 1024.00"
/>
<path stroke="#803722" vector-effect="non-scaling-stroke" d="
  M 684.35 1024.00
  L 682.92 984.11
  A 2.81 2.81 0.0 0 0 680.04 981.40
  L 679.92 981.40
  A 2.78 2.77 -1.5 0 0 677.21 984.25
  L 678.33 1024.00"
/>
</g>
<path fill="#faa587" d="
  M 1024.00 0.00
  L 1024.00 1024.00
  L 774.85 1024.00
  Q 770.71 990.01 763.83 956.50
  Q 758.61 931.12 748.68 903.37
  Q 740.19 879.62 722.06 861.48
  Q 705.84 845.25 694.77 836.22
  A 0.68 0.67 -51.1 0 1 694.67 835.28
  C 702.66 825.26 698.23 815.73 697.01 805.33
  Q 696.26 798.88 694.91 796.24
  C 692.12 790.78 687.78 787.14 682.61 783.89
  A 1.00 1.00 0.0 0 1 682.29 782.54
  Q 686.16 776.09 686.12 768.48
  Q 686.06 757.95 683.57 747.17
  C 678.49 725.14 659.83 717.62 639.25 717.74
  Q 616.22 717.87 573.40 717.92
  A 0.67 0.67 0.0 0 1 572.73 717.25
  L 572.73 697.84
  A 0.44 0.43 87.1 0 1 573.12 697.40
  Q 594.47 694.99 613.92 687.41
  C 634.83 679.26 651.56 664.69 660.59 644.09
  Q 667.03 629.39 668.96 614.10
  A 0.54 0.54 0.0 0 1 669.81 613.73
  C 679.94 620.99 691.92 619.07 700.28 610.25
  C 708.12 602.00 713.09 590.75 716.09 579.89
  Q 719.81 566.45 721.32 553.00
  A 1.43 1.43 0.0 0 1 722.42 551.76
  Q 731.69 549.61 738.87 543.91
  C 743.44 540.28 749.08 533.11 746.13 527.08
  Q 744.64 524.02 741.45 521.54
  Q 737.28 518.31 733.78 515.13
  A 1.09 1.09 0.0 0 1 733.78 513.52
  Q 736.60 510.94 739.97 510.45
  C 744.82 509.74 748.39 509.79 752.58 508.38
  Q 758.87 506.28 763.11 505.18
  C 768.59 503.76 771.49 501.28 771.84 496.00
  Q 772.04 493.11 771.61 491.68
  C 769.37 484.15 766.04 475.50 775.39 471.15
  C 785.21 466.58 794.86 463.84 793.41 451.70
  C 792.71 445.83 788.40 442.80 783.37 440.62
  Q 778.05 438.31 764.01 432.52
  Q 760.58 431.10 757.64 428.73
  A 1.72 1.72 0.0 0 1 757.24 426.52
  Q 757.60 425.90 758.53 425.03
  Q 770.05 414.21 778.31 404.63
  Q 789.39 391.78 790.43 374.00
  Q 790.83 367.22 788.82 362.22
  C 787.26 358.34 785.07 355.99 782.55 351.97
  Q 780.02 347.93 780.42 342.00
  Q 781.27 329.42 781.63 323.50
  Q 782.11 315.67 781.11 310.11
  C 778.67 296.63 766.28 293.99 754.45 293.63
  C 749.64 293.48 745.28 293.86 741.24 293.01
  C 729.69 290.57 721.23 285.82 715.33 275.98
  A 1.65 1.64 -42.4 0 1 715.42 274.15
  Q 719.66 268.45 723.76 261.81
  Q 727.90 255.09 730.05 245.34
  C 731.70 237.82 730.45 227.23 721.96 224.55
  C 715.88 222.63 708.72 223.82 702.30 224.80
  C 694.41 226.00 687.84 225.59 681.19 220.89
  C 673.45 215.42 670.23 203.04 659.24 203.95
  Q 655.71 204.24 650.66 206.94
  C 645.24 209.84 641.85 212.16 636.56 214.48
  Q 629.57 217.53 625.87 212.64
  C 623.83 209.95 623.07 204.61 622.15 201.35
  C 618.82 189.59 608.00 177.66 594.60 182.60
  Q 588.92 184.69 583.80 188.06
  Q 573.84 194.60 566.93 199.94
  Q 565.37 201.15 561.30 203.55
  A 1.55 1.54 50.0 0 1 559.51 203.39
  C 540.29 187.04 485.86 144.37 464.37 180.36
  Q 460.68 186.54 457.79 197.78
  C 456.17 204.08 452.39 213.93 444.39 211.28
  C 438.72 209.40 433.77 201.14 427.45 207.70
  Q 423.55 211.75 418.76 217.56
  A 1.25 1.24 40.5 0 1 416.97 217.70
  Q 408.62 210.30 400.08 205.54
  C 383.24 196.16 375.60 218.00 371.10 229.34
  C 368.14 236.77 359.83 247.36 350.98 248.29
  C 344.45 248.98 338.94 244.32 332.19 246.17
  C 327.21 247.53 324.02 253.16 323.22 257.98
  C 322.12 264.56 323.04 271.40 323.92 278.52
  Q 324.08 279.80 323.88 281.06
  A 1.21 1.21 0.0 0 1 322.34 282.03
  C 312.45 279.11 301.71 276.98 292.80 281.63
  C 276.94 289.91 280.12 313.19 284.46 327.04
  Q 287.59 337.05 291.17 347.60
  Q 291.54 348.70 291.88 350.94
  A 1.25 1.25 0.0 0 1 290.95 352.35
  Q 285.42 353.73 277.33 355.34
  C 269.13 356.97 258.29 360.17 260.24 370.78
  C 261.35 376.82 265.52 381.92 268.42 386.85
  Q 271.40 391.91 268.19 396.68
  C 266.23 399.59 261.28 406.03 260.18 410.12
  C 257.74 419.14 263.72 425.56 269.70 431.45
  C 276.61 438.27 281.56 444.32 289.52 453.23
  A 1.65 1.64 44.0 0 1 289.56 455.38
  Q 289.02 456.03 287.98 456.73
  Q 275.09 465.44 267.42 471.92
  C 262.86 475.78 259.82 479.94 261.97 486.08
  Q 263.37 490.11 266.50 494.27
  Q 273.93 504.16 281.71 513.29
  Q 283.94 515.91 285.20 518.45
  A 1.88 1.88 0.0 0 1 285.10 520.31
  C 282.79 523.93 281.24 527.11 282.73 531.30
  C 284.35 535.88 287.32 539.52 290.97 544.49
  A 1.66 1.66 0.0 0 1 291.29 545.61
  Q 290.97 549.68 293.86 554.42
  Q 297.94 561.09 302.29 566.50
  C 304.63 569.41 306.39 571.39 310.06 570.39
  A 0.63 0.63 0.0 0 1 310.85 570.87
  C 314.33 587.80 325.26 619.64 347.75 618.50
  Q 354.85 618.14 361.03 613.61
  A 0.48 0.48 0.0 0 1 361.79 613.94
  Q 363.50 628.44 369.04 642.19
  C 384.19 679.74 420.66 692.68 458.32 697.98
  A 0.62 0.62 0.0 0 1 458.85 698.59
  L 458.85 717.11
  A 0.78 0.78 0.0 0 1 458.07 717.89
  L 438.51 717.89
  A 2.88 2.82 -36.1 0 1 437.69 717.77
  Q 421.65 712.86 405.00 718.07
  Q 397.87 720.30 394.66 721.68
  Q 377.69 729.00 361.30 737.56
  C 353.14 741.82 345.09 746.82 339.27 754.21
  Q 337.15 756.90 333.64 765.38
  Q 328.98 776.62 327.33 780.56
  C 323.36 790.04 319.61 800.71 319.38 811.13
  Q 319.16 821.65 327.82 826.28
  A 0.53 0.52 -47.2 0 1 327.85 827.19
  C 312.97 836.73 298.92 846.43 287.42 858.93
  C 277.98 869.20 272.18 882.48 267.10 895.58
  Q 257.43 920.47 251.91 947.65
  Q 244.23 985.52 240.35 1024.00
  L 0.00 1024.00
  L 0.00 0.00
  L 1024.00 0.00
  Z"
/>
<path fill="#000000" d="
  M 774.85 1024.00
  L 769.03 1024.00
  Q 764.77 991.80 758.39 959.93
  Q 753.52 935.60 746.04 913.69
  C 740.51 897.50 733.59 882.54 721.69 870.06
  Q 706.86 854.51 690.81 840.48
  A 1.06 1.06 0.0 0 0 689.52 840.41
  C 674.04 850.98 657.75 855.97 639.27 859.78
  Q 609.44 865.93 581.17 869.70
  A 0.95 0.94 87.8 0 0 580.35 870.59
  C 578.86 894.95 579.69 918.22 581.32 944.00
  Q 583.85 983.98 585.56 1024.00
  L 573.08 1024.00
  Q 572.56 1014.17 572.20 1004.33
  C 570.26 951.81 565.44 916.38 567.71 872.23
  A 0.56 0.56 0.0 0 0 567.08 871.65
  L 544.14 874.31
  A 2.49 2.48 85.6 0 1 541.37 871.93
  L 541.33 871.61
  A 3.07 3.07 0.0 0 1 544.04 868.20
  L 567.49 865.60
  A 1.27 1.27 0.0 0 0 568.62 864.47
  C 569.34 857.66 570.12 850.00 573.29 844.30
  C 575.53 840.29 581.16 839.01 584.06 843.21
  C 586.99 847.46 586.01 852.43 582.53 856.03
  A 1.05 1.05 0.0 0 0 582.24 856.58
  L 581.09 862.66
  A 0.59 0.58 3.4 0 0 581.71 863.35
  Q 585.32 863.14 588.81 862.58
  Q 610.66 859.08 629.51 855.50
  Q 646.24 852.32 659.87 848.13
  Q 670.15 844.97 682.28 837.41
  C 685.11 835.65 687.22 832.68 690.12 831.15
  A 2.69 2.65 -88.5 0 0 691.20 830.11
  Q 694.37 824.68 693.36 819.19
  Q 691.41 808.59 691.00 803.75
  C 690.42 796.95 683.56 791.17 677.83 789.07
  A 1.99 1.99 0.0 0 1 676.53 787.36
  L 675.97 780.00
  A 2.88 2.84 60.1 0 1 676.44 778.21
  Q 676.83 777.53 678.52 775.54
  C 682.41 770.96 678.81 752.22 677.40 746.81
  C 674.80 736.79 668.17 730.68 658.78 726.99
  Q 656.19 725.56 654.06 725.20
  C 648.88 724.34 642.60 723.91 636.28 723.91
  Q 605.35 723.93 573.71 724.03
  A 0.85 0.85 0.0 0 0 572.86 724.88
  L 572.86 811.06
  A 0.27 0.27 0.0 0 0 573.31 811.26
  C 600.46 786.96 628.30 760.77 655.02 733.28
  L 657.87 731.53
  A 1.23 1.20 -55.8 0 1 658.66 731.37
  C 661.24 731.75 662.34 734.35 660.57 736.21
  C 634.61 763.35 607.12 788.88 579.16 814.10
  C 560.32 831.09 542.33 848.13 523.85 865.10
  Q 520.65 868.03 517.80 870.29
  Q 514.43 872.96 512.07 869.92
  C 504.86 860.63 495.90 846.87 488.58 836.86
  Q 459.53 797.10 425.71 754.55
  Q 420.69 748.24 417.11 742.41
  C 412.48 734.87 415.12 726.82 422.61 722.62
  A 0.52 0.52 0.0 0 0 422.34 721.65
  C 410.48 722.07 401.30 725.53 389.17 730.94
  Q 380.75 734.69 368.21 740.96
  Q 358.29 745.92 351.22 750.95
  Q 344.31 755.86 341.59 761.62
  Q 338.40 768.36 331.29 786.27
  C 328.29 793.80 325.13 802.86 325.10 810.56
  Q 325.05 821.33 335.89 822.36
  A 3.47 3.36 40.2 0 0 337.05 822.28
  L 339.20 821.75
  A 2.12 2.10 -38.6 0 1 340.62 821.90
  C 343.19 822.97 347.28 825.53 350.93 827.17
  Q 395.25 847.13 442.47 859.07
  A 0.57 0.57 0.0 0 0 443.18 858.58
  Q 444.28 848.69 446.99 840.23
  C 448.79 834.66 451.66 826.35 458.48 828.04
  C 463.86 829.37 464.62 836.36 461.83 840.44
  C 460.98 841.70 459.36 842.61 458.46 843.61
  A 2.14 2.09 73.4 0 0 457.86 844.75
  L 455.19 860.69
  A 1.04 1.04 0.0 0 0 455.97 861.87
  Q 469.62 865.23 485.32 867.52
  A 3.19 3.19 0.0 0 1 488.04 870.94
  L 488.01 871.29
  A 2.75 2.75 0.0 0 1 484.76 873.82
  L 455.12 868.22
  A 0.45 0.45 0.0 0 0 454.59 868.63
  C 453.20 888.64 453.14 907.39 454.32 930.39
  C 456.06 964.38 457.59 989.41 458.64 1024.00
  L 446.32 1024.00
  Q 446.19 1023.78 446.00 1023.64
  Q 446.24 1023.10 446.22 1022.50
  C 445.80 1006.65 444.64 986.20 444.03 967.43
  Q 443.76 959.14 442.80 946.50
  Q 441.55 929.97 441.22 904.25
  Q 440.96 884.15 442.43 865.61
  A 0.50 0.50 0.0 0 0 442.05 865.09
  Q 399.40 854.61 358.55 837.19
  Q 345.17 831.49 342.23 830.26
  Q 339.39 829.06 337.30 829.19
  A 2.17 2.05 26.7 0 0 336.36 829.47
  Q 316.22 841.16 299.52 855.50
  Q 287.09 866.16 279.77 881.01
  Q 274.06 892.59 269.59 905.33
  Q 260.36 931.59 255.43 958.49
  Q 249.46 991.05 246.20 1024.00
  L 240.35 1024.00
  Q 244.23 985.52 251.91 947.65
  Q 257.43 920.47 267.10 895.58
  C 272.18 882.48 277.98 869.20 287.42 858.93
  C 298.92 846.43 312.97 836.73 327.85 827.19
  A 0.53 0.52 -47.2 0 0 327.82 826.28
  Q 319.16 821.65 319.38 811.13
  C 319.61 800.71 323.36 790.04 327.33 780.56
  Q 328.98 776.62 333.64 765.38
  Q 337.15 756.90 339.27 754.21
  C 345.09 746.82 353.14 741.82 361.30 737.56
  Q 377.69 729.00 394.66 721.68
  Q 397.87 720.30 405.00 718.07
  Q 421.65 712.86 437.69 717.77
  A 2.88 2.82 -36.1 0 0 438.51 717.89
  L 458.07 717.89
  A 0.78 0.78 0.0 0 0 458.85 717.11
  L 458.85 698.59
  A 0.62 0.62 0.0 0 0 458.32 697.98
  C 420.66 692.68 384.19 679.74 369.04 642.19
  Q 363.50 628.44 361.79 613.94
  A 0.48 0.48 0.0 0 0 361.03 613.61
  Q 354.85 618.14 347.75 618.50
  C 325.26 619.64 314.33 587.80 310.85 570.87
  A 0.63 0.63 0.0 0 0 310.06 570.39
  C 306.39 571.39 304.63 569.41 302.29 566.50
  Q 297.94 561.09 293.86 554.42
  Q 290.97 549.68 291.29 545.61
  A 1.66 1.66 0.0 0 0 290.97 544.49
  C 287.32 539.52 284.35 535.88 282.73 531.30
  C 281.24 527.11 282.79 523.93 285.10 520.31
  A 1.88 1.88 0.0 0 0 285.20 518.45
  Q 283.94 515.91 281.71 513.29
  Q 273.93 504.16 266.50 494.27
  Q 263.37 490.11 261.97 486.08
  C 259.82 479.94 262.86 475.78 267.42 471.92
  Q 275.09 465.44 287.98 456.73
  Q 289.02 456.03 289.56 455.38
  A 1.65 1.64 44.0 0 0 289.52 453.23
  C 281.56 444.32 276.61 438.27 269.70 431.45
  C 263.72 425.56 257.74 419.14 260.18 410.12
  C 261.28 406.03 266.23 399.59 268.19 396.68
  Q 271.40 391.91 268.42 386.85
  C 265.52 381.92 261.35 376.82 260.24 370.78
  C 258.29 360.17 269.13 356.97 277.33 355.34
  Q 285.42 353.73 290.95 352.35
  A 1.25 1.25 0.0 0 0 291.88 350.94
  Q 291.54 348.70 291.17 347.60
  Q 287.59 337.05 284.46 327.04
  C 280.12 313.19 276.94 289.91 292.80 281.63
  C 301.71 276.98 312.45 279.11 322.34 282.03
  A 1.21 1.21 0.0 0 0 323.88 281.06
  Q 324.08 279.80 323.92 278.52
  C 323.04 271.40 322.12 264.56 323.22 257.98
  C 324.02 253.16 327.21 247.53 332.19 246.17
  C 338.94 244.32 344.45 248.98 350.98 248.29
  C 359.83 247.36 368.14 236.77 371.10 229.34
  C 375.60 218.00 383.24 196.16 400.08 205.54
  Q 408.62 210.30 416.97 217.70
  A 1.25 1.24 40.5 0 0 418.76 217.56
  Q 423.55 211.75 427.45 207.70
  C 433.77 201.14 438.72 209.40 444.39 211.28
  C 452.39 213.93 456.17 204.08 457.79 197.78
  Q 460.68 186.54 464.37 180.36
  C 485.86 144.37 540.29 187.04 559.51 203.39
  A 1.55 1.54 50.0 0 0 561.30 203.55
  Q 565.37 201.15 566.93 199.94
  Q 573.84 194.60 583.80 188.06
  Q 588.92 184.69 594.60 182.60
  C 608.00 177.66 618.82 189.59 622.15 201.35
  C 623.07 204.61 623.83 209.95 625.87 212.64
  Q 629.57 217.53 636.56 214.48
  C 641.85 212.16 645.24 209.84 650.66 206.94
  Q 655.71 204.24 659.24 203.95
  C 670.23 203.04 673.45 215.42 681.19 220.89
  C 687.84 225.59 694.41 226.00 702.30 224.80
  C 708.72 223.82 715.88 222.63 721.96 224.55
  C 730.45 227.23 731.70 237.82 730.05 245.34
  Q 727.90 255.09 723.76 261.81
  Q 719.66 268.45 715.42 274.15
  A 1.65 1.64 -42.4 0 0 715.33 275.98
  C 721.23 285.82 729.69 290.57 741.24 293.01
  C 745.28 293.86 749.64 293.48 754.45 293.63
  C 766.28 293.99 778.67 296.63 781.11 310.11
  Q 782.11 315.67 781.63 323.50
  Q 781.27 329.42 780.42 342.00
  Q 780.02 347.93 782.55 351.97
  C 785.07 355.99 787.26 358.34 788.82 362.22
  Q 790.83 367.22 790.43 374.00
  Q 789.39 391.78 778.31 404.63
  Q 770.05 414.21 758.53 425.03
  Q 757.60 425.90 757.24 426.52
  A 1.72 1.72 0.0 0 0 757.64 428.73
  Q 760.58 431.10 764.01 432.52
  Q 778.05 438.31 783.37 440.62
  C 788.40 442.80 792.71 445.83 793.41 451.70
  C 794.86 463.84 785.21 466.58 775.39 471.15
  C 766.04 475.50 769.37 484.15 771.61 491.68
  Q 772.04 493.11 771.84 496.00
  C 771.49 501.28 768.59 503.76 763.11 505.18
  Q 758.87 506.28 752.58 508.38
  C 748.39 509.79 744.82 509.74 739.97 510.45
  Q 736.60 510.94 733.78 513.52
  A 1.09 1.09 0.0 0 0 733.78 515.13
  Q 737.28 518.31 741.45 521.54
  Q 744.64 524.02 746.13 527.08
  C 749.08 533.11 743.44 540.28 738.87 543.91
  Q 731.69 549.61 722.42 551.76
  A 1.43 1.43 0.0 0 0 721.32 553.00
  Q 719.81 566.45 716.09 579.89
  C 713.09 590.75 708.12 602.00 700.28 610.25
  C 691.92 619.07 679.94 620.99 669.81 613.73
  A 0.54 0.54 0.0 0 0 668.96 614.10
  Q 667.03 629.39 660.59 644.09
  C 651.56 664.69 634.83 679.26 613.92 687.41
  Q 594.47 694.99 573.12 697.40
  A 0.44 0.43 87.1 0 0 572.73 697.84
  L 572.73 717.25
  A 0.67 0.67 0.0 0 0 573.40 717.92
  Q 616.22 717.87 639.25 717.74
  C 659.83 717.62 678.49 725.14 683.57 747.17
  Q 686.06 757.95 686.12 768.48
  Q 686.16 776.09 682.29 782.54
  A 1.00 1.00 0.0 0 0 682.61 783.89
  C 687.78 787.14 692.12 790.78 694.91 796.24
  Q 696.26 798.88 697.01 805.33
  C 698.23 815.73 702.66 825.26 694.67 835.28
  A 0.68 0.67 -51.1 0 0 694.77 836.22
  Q 705.84 845.25 722.06 861.48
  Q 740.19 879.62 748.68 903.37
  Q 758.61 931.12 763.83 956.50
  Q 770.71 990.01 774.85 1024.00
  Z
  M 659.02 457.29
  Q 656.89 442.93 648.39 407.56
  C 647.30 403.04 642.94 400.21 638.95 398.86
  Q 637.45 398.34 630.98 398.34
  Q 531.13 398.30 400.40 398.30
  C 393.49 398.30 389.51 398.94 385.29 403.52
  A 6.75 6.75 0.0 0 0 383.75 406.36
  Q 363.34 486.28 364.78 569.00
  Q 365.20 592.82 367.52 611.10
  C 368.69 620.32 370.82 629.73 373.90 638.10
  C 383.76 664.85 406.46 679.79 433.20 686.79
  Q 453.96 692.23 475.16 694.07
  C 514.95 697.53 558.09 696.61 596.00 686.62
  C 603.91 684.53 611.87 681.84 618.60 678.59
  Q 650.82 663.02 659.98 628.25
  C 664.76 610.10 666.29 590.74 666.77 571.50
  Q 667.80 530.19 663.32 490.23
  C 662.03 478.70 660.92 470.07 659.02 457.29
  Z
  M 670.93 606.49
  C 683.75 620.78 698.86 605.82 704.50 593.71
  C 713.29 574.79 716.85 552.90 716.68 531.78
  Q 716.66 528.45 714.84 526.87
  C 702.14 515.88 684.49 523.14 675.04 534.70
  C 673.68 536.35 672.52 537.83 672.56 539.32
  Q 673.10 562.13 672.99 567.75
  Q 672.58 588.20 670.54 605.24
  A 1.58 1.55 -62.9 0 0 670.93 606.49
  Z
  M 359.73 606.61
  A 2.06 2.04 -24.1 0 0 360.36 604.98
  Q 358.35 578.40 358.55 552.27
  Q 358.59 546.90 357.95 545.56
  Q 351.74 532.47 340.31 525.54
  C 332.19 520.62 321.60 519.94 314.69 527.09
  A 3.98 3.97 -21.9 0 0 313.58 529.69
  Q 312.85 549.56 316.78 569.48
  Q 319.53 583.40 325.44 595.35
  C 332.06 608.76 346.06 619.63 359.73 606.61
  Z
  M 464.74 714.10
  Q 464.58 715.09 464.58 716.50
  Q 464.54 751.08 464.75 790.96
  C 464.76 792.85 464.68 795.18 465.72 796.54
  Q 484.74 821.49 500.92 843.82
  A 2.67 2.65 72.7 0 0 502.99 844.92
  Q 520.83 845.52 538.71 841.66
  A 5.89 5.85 17.7 0 0 541.43 840.27
  L 566.19 817.85
  A 2.59 2.57 -21.2 0 0 567.04 815.94
  L 567.04 714.85
  A 0.46 0.46 0.0 0 0 566.38 714.44
  C 559.38 717.74 552.11 719.72 544.31 721.62
  C 518.69 727.89 489.35 726.14 465.75 713.60
  A 0.69 0.69 0.0 0 0 464.74 714.10
  Z
  M 458.75 787.14
  L 458.75 724.62
  A 0.76 0.75 90.0 0 0 458.00 723.86
  Q 451.81 723.80 439.13 723.84
  Q 433.27 723.86 430.53 725.19
  Q 425.86 727.48 423.12 729.91
  C 418.76 733.78 420.99 738.03 423.66 741.85
  C 430.75 751.99 439.75 762.28 448.07 773.20
  Q 455.17 782.52 458.52 787.22
  A 0.13 0.13 0.0 0 0 458.75 787.14
  Z
  M 532.10 848.97
  Q 518.52 851.13 506.37 850.78
  A 0.51 0.51 0.0 0 0 505.94 851.59
  L 515.14 863.88
  A 0.63 0.62 50.1 0 0 516.06 863.97
  L 532.26 849.31
  A 0.20 0.20 0.0 0 0 532.10 848.97
  Z"
/>
<path fill="#644229" d="
  M 659.02 457.29
  C 660.92 470.07 662.03 478.70 663.32 490.23
  Q 667.80 530.19 666.77 571.50
  C 666.29 590.74 664.76 610.10 659.98 628.25
  Q 650.82 663.02 618.60 678.59
  C 611.87 681.84 603.91 684.53 596.00 686.62
  C 558.09 696.61 514.95 697.53 475.16 694.07
  Q 453.96 692.23 433.20 686.79
  C 406.46 679.79 383.76 664.85 373.90 638.10
  C 370.82 629.73 368.69 620.32 367.52 611.10
  Q 365.20 592.82 364.78 569.00
  Q 363.34 486.28 383.75 406.36
  A 6.75 6.75 0.0 0 1 385.29 403.52
  C 389.51 398.94 393.49 398.30 400.40 398.30
  Q 531.13 398.30 630.98 398.34
  Q 637.45 398.34 638.95 398.86
  C 642.94 400.21 647.30 403.04 648.39 407.56
  Q 656.89 442.93 659.02 457.29
  Z
  M 422.97 464.91
  C 414.73 468.29 417.87 480.22 426.45 478.44
  C 430.15 477.67 433.48 476.39 437.23 475.64
  Q 441.59 474.78 447.40 474.79
  C 453.19 474.81 457.89 473.72 458.09 467.51
  C 458.30 460.58 452.43 459.20 446.77 459.56
  Q 434.02 460.37 422.97 464.91
  Z
  M 607.22 464.76
  Q 596.31 460.37 583.76 459.66
  C 578.18 459.35 572.41 460.75 572.67 467.57
  C 572.91 473.68 577.54 474.72 583.24 474.66
  Q 588.96 474.60 593.26 475.42
  C 596.96 476.13 600.24 477.37 603.89 478.10
  C 612.35 479.79 615.36 468.03 607.22 464.76
  Z
  M 441.5763 549.9352
  A 21.79 14.65 88.8 0 0 455.7668 527.8432
  A 21.79 14.65 88.8 0 0 440.6637 506.3648
  A 21.79 14.65 88.8 0 0 426.4732 528.4568
  A 21.79 14.65 88.8 0 0 441.5763 549.9352
  Z
  M 592.9512 549.8173
  A 21.72 14.72 89.1 0 0 607.3282 527.8688
  A 21.72 14.72 89.1 0 0 592.2688 506.3827
  A 21.72 14.72 89.1 0 0 577.8918 528.3312
  A 21.72 14.72 89.1 0 0 592.9512 549.8173
  Z
  M 528.39 579.22
  A 3.29 2.67 -58.7 0 0 528.92 583.11
  C 531.10 584.70 534.00 582.84 535.75 581.20
  C 546.98 570.72 537.62 557.19 528.90 549.57
  Q 522.88 544.32 516.19 540.26
  A 3.07 3.07 0.0 0 0 512.04 541.17
  L 511.95 541.30
  A 2.98 2.97 -58.5 0 0 512.97 545.56
  C 521.28 550.19 530.65 557.39 534.03 566.16
  C 535.71 570.53 534.72 575.27 530.55 577.51
  Q 528.81 578.44 528.39 579.22
  Z
  M 511.1764 577.8719
  A 5.11 3.35 -36.9 0 0 505.0786 578.2611
  A 5.11 3.35 -36.9 0 0 503.0036 584.0081
  A 5.11 3.35 -36.9 0 0 509.1014 583.6189
  A 5.11 3.35 -36.9 0 0 511.1764 577.8719
  Z
  M 518.24 627.57
  Q 535.41 627.49 552.52 634.25
  Q 555.09 635.26 556.16 635.04
  C 558.80 634.51 559.15 630.88 556.88 629.69
  Q 552.26 627.24 547.02 625.69
  Q 532.33 621.35 518.21 621.42
  Q 504.09 621.48 489.43 625.96
  Q 484.21 627.55 479.61 630.05
  C 477.35 631.26 477.74 634.88 480.38 635.39
  Q 481.45 635.60 484.02 634.56
  Q 501.06 627.65 518.24 627.57
  Z"
/>
<path fill="#000000" d="
  M 426.45 478.44
  C 417.87 480.22 414.73 468.29 422.97 464.91
  Q 434.02 460.37 446.77 459.56
  C 452.43 459.20 458.30 460.58 458.09 467.51
  C 457.89 473.72 453.19 474.81 447.40 474.79
  Q 441.59 474.78 437.23 475.64
  C 433.48 476.39 430.15 477.67 426.45 478.44
  Z"
/>
<path fill="#000000" d="
  M 607.22 464.76
  C 615.36 468.03 612.35 479.79 603.89 478.10
  C 600.24 477.37 596.96 476.13 593.26 475.42
  Q 588.96 474.60 583.24 474.66
  C 577.54 474.72 572.91 473.68 572.67 467.57
  C 572.41 460.75 578.18 459.35 583.76 459.66
  Q 596.31 460.37 607.22 464.76
  Z"
/>
<path fill="#000000" d="
  M 441.5763 549.9352
  A 21.79 14.65 88.8 0 1 426.4732 528.4568
  A 21.79 14.65 88.8 0 1 440.6637 506.3648
  A 21.79 14.65 88.8 0 1 455.7668 527.8432
  A 21.79 14.65 88.8 0 1 441.5763 549.9352
  Z
  M 435.9011 529.8228
  A 4.52 4.32 70.2 0 0 438.4346 524.1067
  A 4.52 4.32 70.2 0 0 432.8389 521.3172
  A 4.52 4.32 70.2 0 0 430.3054 527.0333
  A 4.52 4.32 70.2 0 0 435.9011 529.8228
  Z"
/>
<path fill="#000000" d="
  M 592.9512 549.8173
  A 21.72 14.72 89.1 0 1 577.8918 528.3312
  A 21.72 14.72 89.1 0 1 592.2688 506.3827
  A 21.72 14.72 89.1 0 1 607.3282 527.8688
  A 21.72 14.72 89.1 0 1 592.9512 549.8173
  Z
  M 590.87 525.61
  A 4.60 4.60 0.0 0 0 586.27 521.01
  A 4.60 4.60 0.0 0 0 581.67 525.61
  A 4.60 4.60 0.0 0 0 586.27 530.21
  A 4.60 4.60 0.0 0 0 590.87 525.61
  Z"
/>
<path fill="#fbfbfb" d="
  M 590.87 525.61
  A 4.60 4.60 0.0 0 1 586.27 530.21
  A 4.60 4.60 0.0 0 1 581.67 525.61
  A 4.60 4.60 0.0 0 1 586.27 521.01
  A 4.60 4.60 0.0 0 1 590.87 525.61
  Z"
/>
<path fill="#fbfbfb" d="
  M 435.9011 529.8228
  A 4.52 4.32 70.2 0 1 430.3054 527.0333
  A 4.52 4.32 70.2 0 1 432.8389 521.3172
  A 4.52 4.32 70.2 0 1 438.4346 524.1067
  A 4.52 4.32 70.2 0 1 435.9011 529.8228
  Z"
/>
<path fill="#644229" d="
  M 670.93 606.49
  A 1.58 1.55 -62.9 0 1 670.54 605.24
  Q 672.58 588.20 672.99 567.75
  Q 673.10 562.13 672.56 539.32
  C 672.52 537.83 673.68 536.35 675.04 534.70
  C 684.49 523.14 702.14 515.88 714.84 526.87
  Q 716.66 528.45 716.68 531.78
  C 716.85 552.90 713.29 574.79 704.50 593.71
  C 698.86 605.82 683.75 620.78 670.93 606.49
  Z
  M 679.40 579.17
  A 3.37 3.37 0.0 0 0 683.35 576.77
  Q 688.16 559.25 696.44 545.19
  Q 700.11 538.98 705.74 534.27
  Q 707.34 532.93 707.05 531.15
  A 2.40 2.08 79.5 0 0 704.50 529.11
  C 699.12 530.27 693.51 538.01 690.81 542.81
  Q 682.28 558.00 677.05 575.42
  A 2.94 2.93 -75.7 0 0 679.25 579.14
  L 679.40 579.17
  Z"
/>
<path fill="#644229" d="
  M 359.73 606.61
  C 346.06 619.63 332.06 608.76 325.44 595.35
  Q 319.53 583.40 316.78 569.48
  Q 312.85 549.56 313.58 529.69
  A 3.98 3.97 -21.9 0 1 314.69 527.09
  C 321.60 519.94 332.19 520.62 340.31 525.54
  Q 351.74 532.47 357.95 545.56
  Q 358.59 546.90 358.55 552.27
  Q 358.35 578.40 360.36 604.98
  A 2.06 2.04 -24.1 0 1 359.73 606.61
  Z
  M 324.19 530.95
  Q 322.75 533.51 324.99 535.54
  C 334.35 544.02 340.37 556.77 344.53 568.97
  Q 347.11 576.53 348.03 578.85
  A 2.31 2.31 0.0 0 0 351.37 579.97
  L 351.50 579.89
  A 3.57 3.57 0.0 0 0 353.09 575.84
  C 348.65 560.41 341.95 546.17 332.15 534.18
  C 330.78 532.50 326.00 527.70 324.19 530.95
  Z"
/>
<path fill="#000000" d="
  M 679.40 579.17
  L 679.25 579.14
  A 2.94 2.93 -75.7 0 1 677.05 575.42
  Q 682.28 558.00 690.81 542.81
  C 693.51 538.01 699.12 530.27 704.50 529.11
  A 2.40 2.08 79.5 0 1 707.05 531.15
  Q 707.34 532.93 705.74 534.27
  Q 700.11 538.98 696.44 545.19
  Q 688.16 559.25 683.35 576.77
  A 3.37 3.37 0.0 0 1 679.40 579.17
  Z"
/>
<path fill="#000000" d="
  M 324.19 530.95
  C 326.00 527.70 330.78 532.50 332.15 534.18
  C 341.95 546.17 348.65 560.41 353.09 575.84
  A 3.57 3.57 0.0 0 1 351.50 579.89
  L 351.37 579.97
  A 2.31 2.31 0.0 0 1 348.03 578.85
  Q 347.11 576.53 344.53 568.97
  C 340.37 556.77 334.35 544.02 324.99 535.54
  Q 322.75 533.51 324.19 530.95
  Z"
/>
<path fill="#000000" d="
  M 528.39 579.22
  Q 528.81 578.44 530.55 577.51
  C 534.72 575.27 535.71 570.53 534.03 566.16
  C 530.65 557.39 521.28 550.19 512.97 545.56
  A 2.98 2.97 -58.5 0 1 511.95 541.30
  L 512.04 541.17
  A 3.07 3.07 0.0 0 1 516.19 540.26
  Q 522.88 544.32 528.90 549.57
  C 537.62 557.19 546.98 570.72 535.75 581.20
  C 534.00 582.84 531.10 584.70 528.92 583.11
  A 3.29 2.67 -58.7 0 1 528.39 579.22
  Z"
/>
<path fill="#000000" d="
  M 511.1764 577.8719
  A 5.11 3.35 -36.9 0 1 509.1014 583.6189
  A 5.11 3.35 -36.9 0 1 503.0036 584.0081
  A 5.11 3.35 -36.9 0 1 505.0786 578.2611
  A 5.11 3.35 -36.9 0 1 511.1764 577.8719
  Z"
/>
<path fill="#000000" d="
  M 518.21 621.42
  Q 532.33 621.35 547.02 625.69
  Q 552.26 627.24 556.88 629.69
  C 559.15 630.88 558.80 634.51 556.16 635.04
  Q 555.09 635.26 552.52 634.25
  Q 535.41 627.49 518.24 627.57
  Q 501.06 627.65 484.02 634.56
  Q 481.45 635.60 480.38 635.39
  C 477.74 634.88 477.35 631.26 479.61 630.05
  Q 484.21 627.55 489.43 625.96
  Q 504.09 621.48 518.21 621.42
  Z"
/>
<path fill="#644229" d="
  M 464.74 714.10
  A 0.69 0.69 0.0 0 1 465.75 713.60
  C 489.35 726.14 518.69 727.89 544.31 721.62
  C 552.11 719.72 559.38 717.74 566.38 714.44
  A 0.46 0.46 0.0 0 1 567.04 714.85
  L 567.04 815.94
  A 2.59 2.57 -21.2 0 1 566.19 817.85
  L 541.43 840.27
  A 5.89 5.85 17.7 0 1 538.71 841.66
  Q 520.83 845.52 502.99 844.92
  A 2.67 2.65 72.7 0 1 500.92 843.82
  Q 484.74 821.49 465.72 796.54
  C 464.68 795.18 464.76 792.85 464.75 790.96
  Q 464.54 751.08 464.58 716.50
  Q 464.58 715.09 464.74 714.10
  Z"
/>
<path fill="#ff6d44" d="
  M 655.02 733.28
  Q 656.01 729.61 658.78 726.99
  C 668.17 730.68 674.80 736.79 677.40 746.81
  C 678.81 752.22 682.41 770.96 678.52 775.54
  Q 676.83 777.53 676.44 778.21
  A 2.88 2.84 60.1 0 0 675.97 780.00
  L 676.53 787.36
  A 1.99 1.99 0.0 0 0 677.83 789.07
  C 683.56 791.17 690.42 796.95 691.00 803.75
  Q 691.41 808.59 693.36 819.19
  Q 694.37 824.68 691.20 830.11
  A 2.69 2.65 -88.5 0 1 690.12 831.15
  C 687.22 832.68 685.11 835.65 682.28 837.41
  Q 670.15 844.97 659.87 848.13
  Q 646.24 852.32 629.51 855.50
  Q 610.66 859.08 588.81 862.58
  Q 585.32 863.14 581.71 863.35
  A 0.59 0.58 3.4 0 1 581.09 862.66
  L 582.24 856.58
  A 1.05 1.05 0.0 0 1 582.53 856.03
  C 586.01 852.43 586.99 847.46 584.06 843.21
  C 581.16 839.01 575.53 840.29 573.29 844.30
  C 570.12 850.00 569.34 857.66 568.62 864.47
  A 1.27 1.27 0.0 0 1 567.49 865.60
  L 544.04 868.20
  A 3.07 3.07 0.0 0 0 541.33 871.61
  L 541.37 871.93
  A 2.49 2.48 85.6 0 0 544.14 874.31
  L 567.08 871.65
  A 0.56 0.56 0.0 0 1 567.71 872.23
  C 565.44 916.38 570.26 951.81 572.20 1004.33
  Q 572.56 1014.17 573.08 1024.00
  L 458.64 1024.00
  C 457.59 989.41 456.06 964.38 454.32 930.39
  C 453.14 907.39 453.20 888.64 454.59 868.63
  A 0.45 0.45 0.0 0 1 455.12 868.22
  L 484.76 873.82
  A 2.75 2.75 0.0 0 0 488.01 871.29
  L 488.04 870.94
  A 3.19 3.19 0.0 0 0 485.32 867.52
  Q 469.62 865.23 455.97 861.87
  A 1.04 1.04 0.0 0 1 455.19 860.69
  L 457.86 844.75
  A 2.14 2.09 73.4 0 1 458.46 843.61
  C 459.36 842.61 460.98 841.70 461.83 840.44
  C 464.62 836.36 463.86 829.37 458.48 828.04
  C 451.66 826.35 448.79 834.66 446.99 840.23
  Q 444.28 848.69 443.18 858.58
  A 0.57 0.57 0.0 0 1 442.47 859.07
  Q 395.25 847.13 350.93 827.17
  C 347.28 825.53 343.19 822.97 340.62 821.90
  A 2.12 2.10 -38.6 0 0 339.20 821.75
  L 337.05 822.28
  A 3.47 3.36 40.2 0 1 335.89 822.36
  Q 325.05 821.33 325.10 810.56
  C 325.13 802.86 328.29 793.80 331.29 786.27
  Q 338.40 768.36 341.59 761.62
  Q 344.31 755.86 351.22 750.95
  Q 358.29 745.92 368.21 740.96
  Q 380.75 734.69 389.17 730.94
  C 401.30 725.53 410.48 722.07 422.34 721.65
  A 0.52 0.52 0.0 0 1 422.61 722.62
  C 415.12 726.82 412.48 734.87 417.11 742.41
  Q 420.69 748.24 425.71 754.55
  Q 459.53 797.10 488.58 836.86
  C 495.90 846.87 504.86 860.63 512.07 869.92
  Q 514.43 872.96 517.80 870.29
  Q 520.65 868.03 523.85 865.10
  C 542.33 848.13 560.32 831.09 579.16 814.10
  C 607.12 788.88 634.61 763.35 660.57 736.21
  C 662.34 734.35 661.24 731.75 658.66 731.37
  A 1.23 1.20 -55.8 0 0 657.87 731.53
  L 655.02 733.28
  Z"
/>
<path fill="#c3553c" d="
  M 458.75 787.14
  A 0.13 0.13 0.0 0 1 458.52 787.22
  Q 455.17 782.52 448.07 773.20
  C 439.75 762.28 430.75 751.99 423.66 741.85
  C 420.99 738.03 418.76 733.78 423.12 729.91
  Q 425.86 727.48 430.53 725.19
  Q 433.27 723.86 439.13 723.84
  Q 451.81 723.80 458.00 723.86
  A 0.76 0.75 90.0 0 1 458.75 724.62
  L 458.75 787.14
  Z"
/>
<path fill="#c3553c" d="
  M 658.78 726.99
  Q 656.01 729.61 655.02 733.28
  C 628.30 760.77 600.46 786.96 573.31 811.26
  A 0.27 0.27 0.0 0 1 572.86 811.06
  L 572.86 724.88
  A 0.85 0.85 0.0 0 1 573.71 724.03
  Q 605.35 723.93 636.28 723.91
  C 642.60 723.91 648.88 724.34 654.06 725.20
  Q 656.19 725.56 658.78 726.99
  Z"
/>
<path fill="#ff6d44" d="
  M 446.00 1023.64
  Q 444.99 1023.53 444.58 1024.00
  L 328.24 1024.00
  L 327.69 988.31
  A 2.74 2.72 -0.4 0 0 324.95 985.63
  L 324.84 985.63
  A 2.68 2.66 -0.2 0 0 322.16 988.31
  L 322.44 1024.00
  L 246.20 1024.00
  Q 249.46 991.05 255.43 958.49
  Q 260.36 931.59 269.59 905.33
  Q 274.06 892.59 279.77 881.01
  Q 287.09 866.16 299.52 855.50
  Q 316.22 841.16 336.36 829.47
  A 2.17 2.05 26.7 0 1 337.30 829.19
  Q 339.39 829.06 342.23 830.26
  Q 345.17 831.49 358.55 837.19
  Q 399.40 854.61 442.05 865.09
  A 0.50 0.50 0.0 0 1 442.43 865.61
  Q 440.96 884.15 441.22 904.25
  Q 441.55 929.97 442.80 946.50
  Q 443.76 959.14 444.03 967.43
  C 444.64 986.20 445.80 1006.65 446.22 1022.50
  Q 446.24 1023.10 446.00 1023.64
  Z"
/>
<path fill="#ff6d44" d="
  M 769.03 1024.00
  L 684.35 1024.00
  L 682.92 984.11
  A 2.81 2.81 0.0 0 0 680.04 981.40
  L 679.92 981.40
  A 2.78 2.77 -1.5 0 0 677.21 984.25
  L 678.33 1024.00
  L 585.56 1024.00
  Q 583.85 983.98 581.32 944.00
  C 579.69 918.22 578.86 894.95 580.35 870.59
  A 0.95 0.94 87.8 0 1 581.17 869.70
  Q 609.44 865.93 639.27 859.78
  C 657.75 855.97 674.04 850.98 689.52 840.41
  A 1.06 1.06 0.0 0 1 690.81 840.48
  Q 706.86 854.51 721.69 870.06
  C 733.59 882.54 740.51 897.50 746.04 913.69
  Q 753.52 935.60 758.39 959.93
  Q 764.77 991.80 769.03 1024.00
  Z"
/>
<path fill="#fbfbfb" d="
  M 532.10 848.97
  A 0.20 0.20 0.0 0 1 532.26 849.31
  L 516.06 863.97
  A 0.63 0.62 50.1 0 1 515.14 863.88
  L 505.94 851.59
  A 0.51 0.51 0.0 0 1 506.37 850.78
  Q 518.52 851.13 532.10 848.97
  Z"
/>
<path fill="#000000" d="
  M 684.35 1024.00
  L 678.33 1024.00
  L 677.21 984.25
  A 2.78 2.77 -1.5 0 1 679.92 981.40
  L 680.04 981.40
  A 2.81 2.81 0.0 0 1 682.92 984.11
  L 684.35 1024.00
  Z"
/>
<path fill="#000000" d="
  M 328.24 1024.00
  L 322.44 1024.00
  L 322.16 988.31
  A 2.68 2.66 -0.2 0 1 324.84 985.63
  L 324.95 985.63
  A 2.74 2.72 -0.4 0 1 327.69 988.31
  L 328.24 1024.00
  Z"
/>
<path fill="#faa587" d="
  M 446.00 1023.64
  Q 446.19 1023.78 446.32 1024.00
  L 444.58 1024.00
  Q 444.99 1023.53 446.00 1023.64
  Z"
/>
</svg>
